<svg width="60" height="60" viewBox="0 0 60 60" fill="none" xmlns="http://www.w3.org/2000/svg">
<g clip-path="url(#clip0_1_10)">
<rect x="10.438" y="50.438" width="40" height="40" transform="rotate(-90 10.438 50.438)" fill="url(#paint0_linear_1_10)"/>
<path d="M30.0881 32.4545H33.1278V42.5966C33.1278 43.5341 32.9171 44.3485 32.4957 45.0398C32.0791 45.7311 31.4991 46.2637 30.7557 46.6378C30.0123 47.0118 29.1482 47.1989 28.1634 47.1989C27.2874 47.1989 26.492 47.045 25.777 46.7372C25.0668 46.4247 24.5033 45.9512 24.0866 45.3168C23.67 44.6776 23.464 43.875 23.4688 42.9091H26.5298C26.5393 43.2926 26.6174 43.6217 26.7642 43.8963C26.9157 44.1662 27.1217 44.3745 27.3821 44.5213C27.6473 44.6634 27.9598 44.7344 28.3196 44.7344C28.6984 44.7344 29.018 44.6539 29.2784 44.4929C29.5436 44.3272 29.7448 44.0857 29.8821 43.7685C30.0194 43.4512 30.0881 43.0606 30.0881 42.5966V32.4545ZM43.5611 36.6378C43.5043 36.0649 43.2604 35.6198 42.8295 35.3026C42.3987 34.9853 41.8139 34.8267 41.0753 34.8267C40.5734 34.8267 40.1496 34.8977 39.804 35.0398C39.4583 35.1771 39.1932 35.3688 39.0085 35.6151C38.8286 35.8613 38.7386 36.1406 38.7386 36.4531C38.7292 36.7135 38.7836 36.9408 38.902 37.1349C39.0251 37.3291 39.1932 37.4972 39.4062 37.6392C39.6193 37.7765 39.8655 37.8973 40.1449 38.0014C40.4242 38.1009 40.7225 38.1861 41.0398 38.2571L42.3466 38.5696C42.9811 38.7116 43.5634 38.901 44.0938 39.1378C44.6241 39.3745 45.0833 39.6657 45.4716 40.0114C45.8598 40.357 46.1605 40.7642 46.3736 41.233C46.5914 41.7017 46.7027 42.2391 46.7074 42.8452C46.7027 43.7353 46.4754 44.5071 46.0256 45.1605C45.5805 45.8092 44.9366 46.3134 44.0938 46.6733C43.2557 47.0284 42.2448 47.206 41.0611 47.206C39.8868 47.206 38.8641 47.026 37.9929 46.6662C37.1264 46.3063 36.4493 45.7737 35.9616 45.0682C35.4787 44.358 35.2254 43.4796 35.2017 42.4332H38.1776C38.2107 42.9209 38.3504 43.3281 38.5966 43.6548C38.8475 43.9768 39.1813 44.2206 39.598 44.3864C40.0194 44.5473 40.4953 44.6278 41.0256 44.6278C41.5464 44.6278 41.9986 44.5521 42.3821 44.4006C42.7704 44.2491 43.071 44.0384 43.2841 43.7685C43.4972 43.4986 43.6037 43.1884 43.6037 42.8381C43.6037 42.5114 43.5066 42.2367 43.3125 42.0142C43.1231 41.7917 42.8438 41.6023 42.4744 41.446C42.1098 41.2898 41.6624 41.1477 41.1321 41.0199L39.5483 40.6222C38.322 40.3239 37.3537 39.8575 36.6435 39.223C35.9332 38.5885 35.5805 37.7339 35.5852 36.6591C35.5805 35.7784 35.8149 35.009 36.2884 34.3509C36.7666 33.6927 37.4223 33.179 38.2557 32.8097C39.089 32.4403 40.036 32.2557 41.0966 32.2557C42.1761 32.2557 43.1184 32.4403 43.9233 32.8097C44.733 33.179 45.3627 33.6927 45.8125 34.3509C46.2623 35.009 46.4943 35.7713 46.5085 36.6378H43.5611Z" fill="white"/>
<circle cx="17.7463" cy="42.7462" r="17.5" transform="rotate(-134.189 17.7463 42.7462)" fill="url(#paint1_linear_1_10)"/>
</g>
<defs>
<linearGradient id="paint0_linear_1_10" x1="30.438" y1="50.438" x2="30.438" y2="90.438" gradientUnits="userSpaceOnUse">
<stop offset="0.291667" stop-color="#EC4E20"/>
</linearGradient>
<linearGradient id="paint1_linear_1_10" x1="17.7463" y1="25.2462" x2="17.7463" y2="60.2462" gradientUnits="userSpaceOnUse">
<stop offset="0.484375" stop-color="#F5C61D"/>
<stop offset="1" stop-color="#F5C61D" stop-opacity="0"/>
</linearGradient>
<clipPath id="clip0_1_10">
<rect width="60" height="60" fill="white"/>
</clipPath>
</defs>
</svg>
