<svg width="60" height="60" viewBox="0 0 60 60" fill="none" xmlns="http://www.w3.org/2000/svg">
<g clip-path="url(#clip0_1_15)">
<rect x="10.438" y="50.438" width="40" height="40" transform="rotate(-90 10.438 50.438)" fill="url(#paint0_linear_1_15)"/>
<path d="M18.8878 34.9876V31.8182H33.8203V34.9876H28.2539V50H24.4542V34.9876H18.8878ZM46.1428 37.0472C46.0717 36.3311 45.7669 35.7747 45.2283 35.3782C44.6897 34.9817 43.9588 34.7834 43.0355 34.7834C42.4081 34.7834 41.8784 34.8722 41.4464 35.0497C41.0143 35.2214 40.6829 35.4611 40.4521 35.7688C40.2272 36.0766 40.1147 36.4258 40.1147 36.8164C40.1029 37.1419 40.1709 37.426 40.3189 37.6687C40.4728 37.9113 40.6829 38.1214 40.9492 38.299C41.2156 38.4706 41.5233 38.6216 41.8725 38.7518C42.2217 38.8761 42.5946 38.9826 42.9911 39.0714L44.6246 39.462C45.4177 39.6396 46.1457 39.8763 46.8086 40.1722C47.4715 40.4682 48.0456 40.8321 48.5309 41.2642C49.0162 41.6963 49.392 42.2053 49.6584 42.7912C49.9306 43.3771 50.0697 44.0489 50.0756 44.8065C50.0697 45.9192 49.7856 46.8839 49.2234 47.7006C48.667 48.5115 47.8621 49.1418 46.8086 49.5916C45.761 50.0355 44.4974 50.2575 43.0178 50.2575C41.55 50.2575 40.2715 50.0326 39.1825 49.5827C38.0994 49.1329 37.2531 48.4671 36.6435 47.5852C36.0398 46.6974 35.7231 45.5996 35.6935 44.2915H39.4134C39.4548 44.9012 39.6294 45.4102 39.9371 45.8185C40.2508 46.221 40.6681 46.5258 41.1889 46.733C41.7157 46.9342 42.3105 47.0348 42.9734 47.0348C43.6244 47.0348 44.1896 46.9401 44.669 46.7507C45.1544 46.5613 45.5302 46.2979 45.7965 45.9606C46.0629 45.6232 46.196 45.2356 46.196 44.7976C46.196 44.3892 46.0747 44.0459 45.832 43.7678C45.5953 43.4896 45.2461 43.2528 44.7844 43.0575C44.3287 42.8622 43.7694 42.6847 43.1065 42.5249L41.1268 42.0277C39.5939 41.6548 38.3835 41.0719 37.4957 40.2788C36.608 39.4857 36.167 38.4174 36.1729 37.0739C36.167 35.973 36.46 35.0112 37.0518 34.1886C37.6496 33.3659 38.4693 32.7237 39.511 32.2621C40.5527 31.8004 41.7364 31.5696 43.0621 31.5696C44.4116 31.5696 45.5894 31.8004 46.5955 32.2621C47.6076 32.7237 48.3948 33.3659 48.957 34.1886C49.5193 35.0112 49.8093 35.9641 49.8271 37.0472H46.1428Z" fill="white"/>
<circle cx="17.7463" cy="42.7462" r="17.5" transform="rotate(-134.189 17.7463 42.7462)" fill="url(#paint1_linear_1_15)"/>
</g>
<defs>
<linearGradient id="paint0_linear_1_15" x1="30.438" y1="50.438" x2="30.438" y2="90.438" gradientUnits="userSpaceOnUse">
<stop offset="0.291667" stop-color="#EC4E20"/>
</linearGradient>
<linearGradient id="paint1_linear_1_15" x1="17.7463" y1="25.2462" x2="17.7463" y2="60.2462" gradientUnits="userSpaceOnUse">
<stop offset="0.484375" stop-color="#F5C61D"/>
<stop offset="1" stop-color="#F5C61D" stop-opacity="0"/>
</linearGradient>
<clipPath id="clip0_1_15">
<rect width="60" height="60" fill="white"/>
</clipPath>
</defs>
</svg>
